<svg width="573" height="346" viewBox="0 0 573 346" fill="none" xmlns="http://www.w3.org/2000/svg">
<g clip-path="url(#clip0_13_156)">
<path d="M124.153 307.128C140.611 307.128 153.952 293.107 153.952 275.812C153.952 258.516 140.611 244.495 124.153 244.495C107.696 244.495 94.354 258.516 94.354 275.812C94.354 293.107 107.696 307.128 124.153 307.128Z" fill="#F2F2F2"/>
<path d="M128.999 302.545C145.456 302.545 158.798 288.524 158.798 271.229C158.798 253.933 145.456 239.912 128.999 239.912C112.541 239.912 99.1994 253.933 99.1994 271.229C99.1994 288.524 112.541 302.545 128.999 302.545Z" fill="#1F71ED"/>
<path d="M521.694 236.577H152.997V237.634H521.694V236.577Z" fill="#3F3D56"/>
<path d="M343.946 9.8598H213.081V7.02521H153.742V9.8598H22.3382C21.1757 9.8598 20.0246 10.1004 18.9506 10.5679C17.8767 11.0354 16.9008 11.7207 16.0788 12.5845C15.2569 13.4484 14.6048 14.4739 14.16 15.6026C13.7151 16.7312 13.4861 17.9409 13.4861 19.1626V207.482C13.4861 209.949 14.4188 212.316 16.0788 214.06C17.7389 215.805 19.9905 216.785 22.3382 216.785H343.946C346.294 216.785 348.545 215.805 350.205 214.06C351.865 212.316 352.798 209.949 352.798 207.482V19.1626C352.798 17.9409 352.569 16.7312 352.124 15.6026C351.679 14.4739 351.027 13.4484 350.205 12.5845C349.383 11.7207 348.407 11.0354 347.333 10.5679C346.26 10.1004 345.108 9.8598 343.946 9.8598Z" fill="#3F3D56"/>
<path d="M340.93 26.3004H25.354V213.383H340.93V26.3004Z" fill="#6C63FF"/>
<path d="M182.872 21.1982C184.66 21.1982 186.109 19.6753 186.109 17.7967C186.109 15.918 184.66 14.3951 182.872 14.3951C181.085 14.3951 179.636 15.918 179.636 17.7967C179.636 19.6753 181.085 21.1982 182.872 21.1982Z" fill="#1F71ED"/>
<path opacity="0.1" d="M250.681 213.384H25.3541V26.3006L250.681 213.384Z" fill="black"/>
<path d="M74.7322 199.384C91.4853 199.384 105.066 185.111 105.066 167.505C105.066 149.899 91.4853 135.626 74.7322 135.626C57.9791 135.626 44.3981 149.899 44.3981 167.505C44.3981 185.111 57.9791 199.384 74.7322 199.384Z" fill="#F2F2F2"/>
<path d="M285.983 127.196H256.505V133.669H285.983V127.196Z" fill="#3F3D56"/>
<path d="M321.621 76.7963H220.867V79.5706H321.621V76.7963Z" fill="#3F3D56"/>
<path d="M321.621 85.5815H220.867V88.3558H321.621V85.5815Z" fill="#3F3D56"/>
<path d="M321.621 94.3668H220.867V97.141H321.621V94.3668Z" fill="#3F3D56"/>
<path d="M321.621 103.152H220.867V105.926H321.621V103.152Z" fill="#3F3D56"/>
<path d="M321.621 111.937H220.867V114.712H321.621V111.937Z" fill="#3F3D56"/>
<path d="M321.621 30.0959H309.302V43.0426H321.621V30.0959Z" fill="#F2F2F2"/>
<path d="M327.341 49.0535H312.382V33.3326H327.341V49.0535ZM313.032 48.37H326.69V34.0161H313.032V48.37Z" fill="#3F3D56"/>
<path d="M361.659 209.982H330.861V207.65C330.861 207.589 330.849 207.529 330.827 207.473C330.805 207.417 330.773 207.366 330.732 207.323C330.691 207.28 330.642 207.246 330.589 207.223C330.536 207.199 330.478 207.187 330.421 207.188H319.861C319.803 207.187 319.746 207.199 319.693 207.223C319.639 207.246 319.591 207.28 319.55 207.323C319.509 207.366 319.477 207.417 319.455 207.473C319.433 207.529 319.421 207.589 319.421 207.65V209.982H312.822V207.65C312.822 207.589 312.81 207.529 312.788 207.473C312.766 207.417 312.734 207.366 312.693 207.323C312.652 207.28 312.603 207.246 312.55 207.223C312.497 207.199 312.439 207.187 312.382 207.188H301.822C301.764 207.187 301.707 207.199 301.654 207.223C301.6 207.246 301.552 207.28 301.511 207.323C301.47 207.366 301.438 207.417 301.416 207.473C301.394 207.529 301.382 207.589 301.382 207.65V209.982H294.783V207.65C294.783 207.589 294.771 207.529 294.749 207.473C294.727 207.417 294.695 207.366 294.654 207.323C294.613 207.28 294.564 207.246 294.511 207.223C294.458 207.199 294.4 207.187 294.343 207.188H283.783C283.726 207.187 283.668 207.199 283.615 207.223C283.562 207.246 283.513 207.28 283.472 207.323C283.431 207.366 283.399 207.417 283.377 207.473C283.355 207.529 283.343 207.589 283.343 207.65V209.982H276.744V207.65C276.744 207.589 276.732 207.529 276.71 207.473C276.688 207.417 276.656 207.366 276.615 207.323C276.574 207.28 276.525 207.246 276.472 207.223C276.419 207.199 276.362 207.187 276.304 207.188H265.744C265.687 207.187 265.629 207.199 265.576 207.223C265.523 207.246 265.474 207.28 265.433 207.323C265.392 207.366 265.36 207.417 265.338 207.473C265.316 207.529 265.304 207.589 265.304 207.65V209.982H258.705V207.65C258.705 207.589 258.693 207.529 258.671 207.473C258.649 207.417 258.617 207.366 258.576 207.323C258.535 207.28 258.487 207.246 258.433 207.223C258.38 207.199 258.323 207.187 258.265 207.188H247.705C247.648 207.187 247.59 207.199 247.537 207.223C247.484 207.246 247.435 207.28 247.394 207.323C247.353 207.366 247.321 207.417 247.299 207.473C247.277 207.529 247.265 207.589 247.265 207.65V209.982H240.666V207.65C240.666 207.589 240.654 207.529 240.632 207.473C240.61 207.417 240.578 207.366 240.537 207.323C240.496 207.28 240.448 207.246 240.394 207.223C240.341 207.199 240.284 207.187 240.226 207.188H229.666C229.609 207.187 229.551 207.199 229.498 207.223C229.445 207.246 229.396 207.28 229.355 207.323C229.314 207.366 229.282 207.417 229.26 207.473C229.238 207.529 229.227 207.589 229.227 207.65V209.982H222.627V207.65C222.627 207.589 222.615 207.529 222.593 207.473C222.571 207.417 222.539 207.366 222.498 207.323C222.457 207.28 222.409 207.246 222.355 207.223C222.302 207.199 222.245 207.187 222.187 207.188H139.472C139.414 207.187 139.357 207.199 139.303 207.223C139.25 207.246 139.202 207.28 139.161 207.323C139.12 207.366 139.087 207.417 139.065 207.473C139.043 207.529 139.032 207.589 139.032 207.65V209.982H132.432V207.65C132.432 207.589 132.421 207.529 132.399 207.473C132.377 207.417 132.344 207.366 132.303 207.323C132.262 207.28 132.214 207.246 132.161 207.223C132.107 207.199 132.05 207.187 131.992 207.188H121.433C121.375 207.187 121.318 207.199 121.264 207.223C121.211 207.246 121.163 207.28 121.122 207.323C121.081 207.366 121.048 207.417 121.026 207.473C121.004 207.529 120.993 207.589 120.993 207.65V209.982H114.393V207.65C114.393 207.589 114.382 207.529 114.36 207.473C114.338 207.417 114.305 207.366 114.264 207.323C114.224 207.28 114.175 207.246 114.122 207.223C114.068 207.199 114.011 207.187 113.953 207.188H103.394C103.336 207.187 103.279 207.199 103.226 207.223C103.172 207.246 103.124 207.28 103.083 207.323C103.042 207.366 103.01 207.417 102.987 207.473C102.965 207.529 102.954 207.589 102.954 207.65V209.982H96.3543V207.65C96.3543 207.589 96.3429 207.529 96.3208 207.473C96.2987 207.417 96.2663 207.366 96.2255 207.323C96.1846 207.28 96.1361 207.246 96.0827 207.223C96.0293 207.199 95.9721 207.187 95.9144 207.188H85.355C85.2972 207.187 85.24 207.199 85.1866 207.223C85.1332 207.246 85.0847 207.28 85.0439 207.323C85.003 207.366 84.9706 207.417 84.9485 207.473C84.9264 207.529 84.915 207.589 84.915 207.65V209.982H78.3154V207.65C78.3154 207.589 78.304 207.529 78.2819 207.473C78.2598 207.417 78.2274 207.366 78.1865 207.323C78.1457 207.28 78.0972 207.246 78.0438 207.223C77.9904 207.199 77.9332 207.187 77.8754 207.188H67.316C67.2583 207.187 67.201 207.199 67.1477 207.223C67.0943 207.246 67.0458 207.28 67.0049 207.323C66.9641 207.366 66.9317 207.417 66.9095 207.473C66.8874 207.529 66.8761 207.589 66.8761 207.65V209.982H60.2765V207.65C60.2765 207.589 60.2651 207.529 60.243 207.473C60.2209 207.417 60.1884 207.366 60.1476 207.323C60.1067 207.28 60.0582 207.246 60.0048 207.223C59.9515 207.199 59.8943 207.187 59.8365 207.188H49.2771C49.2193 207.187 49.1621 207.199 49.1087 207.223C49.0553 207.246 49.0068 207.28 48.966 207.323C48.9251 207.366 48.8927 207.417 48.8706 207.473C48.8485 207.529 48.8371 207.589 48.8371 207.65V209.982H42.2375V207.65C42.2375 207.589 42.2261 207.529 42.204 207.473C42.1819 207.417 42.1495 207.366 42.1087 207.323C42.0678 207.28 42.0193 207.246 41.9659 207.223C41.9125 207.199 41.8553 207.187 41.7975 207.188H31.2382C31.1804 207.187 31.1232 207.199 31.0698 207.223C31.0164 207.246 30.9679 207.28 30.927 207.323C30.8862 207.366 30.8538 207.417 30.8317 207.473C30.8096 207.529 30.7982 207.589 30.7982 207.65V209.982H10.5594C7.75886 209.982 5.07304 211.151 3.09277 213.232C1.11251 215.313 2.66806e-06 218.136 0 221.079V226.097C8.00418e-06 229.04 1.11251 231.863 3.09278 233.944C5.07305 236.025 7.75886 237.194 10.5594 237.194H361.659C364.459 237.194 367.145 236.025 369.125 233.944C371.106 231.863 372.218 229.04 372.218 226.097V221.079C372.218 218.136 371.106 215.313 369.125 213.232C367.145 211.151 364.459 209.982 361.659 209.982Z" fill="#3F3D56"/>
<path d="M82.0748 187.416C74.5141 187.416 67.1231 185.06 60.8366 180.646C54.55 176.231 49.6503 169.957 46.7569 162.616C43.8635 155.275 43.1065 147.197 44.5815 139.404C46.0566 131.611 49.6974 124.452 55.0437 118.834C60.3899 113.215 67.2015 109.389 74.6169 107.839C82.0324 106.289 89.7187 107.084 96.704 110.125C103.689 113.166 109.66 118.315 113.86 124.922C118.061 131.528 120.303 139.296 120.303 147.242C120.291 157.893 116.26 168.104 109.093 175.636C101.927 183.168 92.2099 187.404 82.0748 187.416ZM82.0748 108.124C74.713 108.124 67.5166 110.418 61.3955 114.717C55.2744 119.015 50.5036 125.124 47.6863 132.272C44.8691 139.42 44.132 147.285 45.5682 154.873C47.0044 162.461 50.5494 169.431 55.755 174.902C60.9606 180.372 67.5929 184.098 74.8132 185.607C82.0335 187.117 89.5176 186.342 96.319 183.381C103.12 180.421 108.934 175.407 113.024 168.974C117.114 162.541 119.297 154.978 119.297 147.242C119.285 136.871 115.36 126.928 108.382 119.594C101.404 112.261 91.9432 108.136 82.0748 108.124Z" fill="#3F3D56"/>
<path d="M423.107 17.2028H294.843V18.26H423.107V17.2028Z" fill="#3F3D56"/>
<path d="M573 296.31H204.303V297.368H573V296.31Z" fill="#3F3D56"/>
<path d="M225.177 344.943H96.9133V346H225.177V344.943Z" fill="#3F3D56"/>
<path d="M250.996 290.737H236.912V305.538H250.996V290.737Z" fill="#1F71ED"/>
<path d="M259.547 297.081H242.445V279.108H259.547V297.081ZM243.188 296.299H258.803V279.889H243.188V296.299Z" fill="#3F3D56"/>
<path d="M414.47 11.6295H400.386V26.4306H414.47V11.6295Z" fill="#1F71ED"/>
<path d="M423.021 17.9728H405.919V0H423.021V17.9728ZM406.662 17.1914H422.277V0.781429H406.662V17.1914Z" fill="#3F3D56"/>
<path d="M556.315 290.737H542.231V305.538H556.315V290.737Z" fill="#1F71ED"/>
<path d="M564.866 297.081H547.764V279.108H564.866V297.081ZM548.508 296.299H564.123V279.889H548.508V296.299Z" fill="#3F3D56"/>
<path d="M531.754 122.616H530.558V88.1708C530.558 85.5528 530.067 82.9604 529.114 80.5417C528.161 78.1229 526.763 75.9252 525.002 74.074C523.24 72.2227 521.149 70.7543 518.847 69.7524C516.546 68.7505 514.079 68.2349 511.588 68.2349H442.147C439.656 68.2349 437.19 68.7505 434.888 69.7524C432.586 70.7542 430.495 72.2227 428.734 74.074C426.972 75.9252 425.575 78.1229 424.621 80.5417C423.668 82.9604 423.177 85.5528 423.177 88.1708V277.14C423.177 279.758 423.668 282.351 424.621 284.769C425.575 287.188 426.972 289.386 428.734 291.237C430.495 293.088 432.586 294.557 434.888 295.559C437.19 296.56 439.656 297.076 442.147 297.076H511.588C514.079 297.076 516.546 296.56 518.847 295.559C521.149 294.557 523.24 293.088 525.002 291.237C526.763 289.386 528.161 287.188 529.114 284.769C530.067 282.351 530.558 279.758 530.558 277.14V147.135H531.754V122.616Z" fill="#3F3D56"/>
<path d="M526.518 89.3426V278.036C526.519 281.985 525.027 285.772 522.371 288.565C519.714 291.357 516.111 292.927 512.354 292.927H442.578C438.821 292.927 435.218 291.357 432.561 288.565C429.905 285.772 428.413 281.985 428.414 278.036V89.3426C428.414 85.3948 429.907 81.6088 432.563 78.8172C435.219 76.0257 438.822 74.4573 442.578 74.4568H451.044C450.627 75.5308 450.468 76.6959 450.581 77.8496C450.694 79.0033 451.075 80.1101 451.69 81.0726C452.306 82.0351 453.138 82.8237 454.112 83.3689C455.086 83.9141 456.172 84.1992 457.276 84.1992H497.058C498.161 84.1993 499.248 83.9141 500.222 83.3689C501.196 82.8237 502.027 82.0351 502.643 81.0726C503.259 80.1101 503.64 79.0033 503.753 77.8496C503.865 76.6959 503.707 75.5308 503.29 74.4568H512.354C516.11 74.4573 519.713 76.0257 522.369 78.8172C525.025 81.6088 526.518 85.3948 526.518 89.3426Z" fill="#6C63FF"/>
<path d="M487.859 198.874H467.073V205.347H487.859V198.874Z" fill="#3F3D56"/>
<path d="M512.988 148.474H441.944V151.248H512.988V148.474Z" fill="#3F3D56"/>
<path d="M512.988 157.259H441.944V160.034H512.988V157.259Z" fill="#3F3D56"/>
<path d="M512.988 166.045H441.944V168.819H512.988V166.045Z" fill="#3F3D56"/>
<path d="M512.988 174.83H441.944V177.604H512.988V174.83Z" fill="#3F3D56"/>
<path d="M512.988 183.615H441.944V186.389H512.988V183.615Z" fill="#3F3D56"/>
<path d="M479.948 111.632H467.628V124.578H479.948V111.632Z" fill="#F2F2F2"/>
<path d="M472.344 114.869V130.59H487.303V114.869H472.344ZM486.655 129.908H472.993V115.551H486.655V129.908Z" fill="#3F3D56"/>
<path opacity="0.1" d="M526.518 257.885V278.036C526.519 281.985 525.027 285.772 522.371 288.565C519.714 291.357 516.111 292.927 512.354 292.927H442.578C438.821 292.927 435.218 291.357 432.561 288.565C429.905 285.772 428.413 281.985 428.414 278.036V176.432L487.199 225.238L488.205 226.074L499.14 235.15L500.161 236.001L526.518 257.885Z" fill="black"/>
<path d="M471.43 286.812C483.616 286.812 493.495 276.43 493.495 263.623C493.495 250.816 483.616 240.434 471.43 240.434C459.244 240.434 449.365 250.816 449.365 263.623C449.365 276.43 459.244 286.812 471.43 286.812Z" fill="#F2F2F2"/>
<path d="M161.045 346C152.39 346 143.93 343.303 136.733 338.249C129.537 333.196 123.928 326.014 120.616 317.61C117.304 309.207 116.437 299.96 118.125 291.039C119.814 282.118 123.982 273.923 130.102 267.491C136.222 261.06 144.019 256.68 152.508 254.905C160.997 253.131 169.796 254.041 177.792 257.522C185.788 261.003 192.623 266.898 197.431 274.46C202.24 282.023 204.806 290.915 204.806 300.011C204.793 312.204 200.178 323.893 191.974 332.515C183.771 341.137 172.647 345.986 161.045 346ZM161.045 255.079C152.589 255.079 144.323 257.714 137.292 262.651C130.261 267.588 124.781 274.606 121.545 282.816C118.309 291.026 117.462 300.061 119.112 308.777C120.762 317.493 124.834 325.499 130.813 331.782C136.793 338.066 144.411 342.346 152.704 344.079C160.998 345.813 169.594 344.923 177.407 341.523C185.219 338.122 191.897 332.363 196.595 324.974C201.293 317.585 203.8 308.897 203.8 300.011C203.787 288.098 199.279 276.677 191.263 268.254C183.248 259.83 172.381 255.092 161.045 255.079Z" fill="#3F3D56"/>
<path d="M477.934 281.509C472.462 281.509 467.113 279.804 462.564 276.609C458.015 273.415 454.469 268.874 452.375 263.562C450.281 258.249 449.733 252.403 450.801 246.764C451.868 241.124 454.503 235.943 458.372 231.877C462.241 227.811 467.17 225.042 472.537 223.92C477.903 222.799 483.466 223.374 488.521 225.575C493.576 227.775 497.896 231.502 500.936 236.283C503.976 241.064 505.599 246.685 505.599 252.436C505.59 260.144 502.673 267.534 497.487 272.984C492.3 278.435 485.268 281.501 477.934 281.509ZM477.934 224.419C472.661 224.419 467.507 226.062 463.123 229.141C458.739 232.219 455.322 236.595 453.304 241.714C451.286 246.833 450.759 252.467 451.787 257.901C452.816 263.336 455.355 268.328 459.083 272.246C462.811 276.164 467.562 278.833 472.733 279.914C477.904 280.995 483.264 280.44 488.136 278.319C493.007 276.199 497.17 272.608 500.1 268.001C503.029 263.393 504.593 257.977 504.593 252.436C504.585 245.008 501.773 237.886 496.776 232.634C491.778 227.382 485.002 224.427 477.934 224.419Z" fill="#3F3D56"/>
</g>
<defs>
<clipPath id="clip0_13_156">
<rect width="573" height="346" fill="white"/>
</clipPath>
</defs>
</svg>
