<svg width="150" height="152" viewBox="0 0 150 152" fill="none" xmlns="http://www.w3.org/2000/svg">
<path d="M6.25 126.667V108.933C6.25 105.344 7.16146 102.046 8.98438 99.0375C10.8073 96.0292 13.2292 93.7333 16.25 92.15C22.7083 88.8778 29.2708 86.4236 35.9375 84.7875C42.6042 83.1514 49.375 82.3333 56.25 82.3333C63.125 82.3333 69.8958 83.1514 76.5625 84.7875C83.2292 86.4236 89.7917 88.8778 96.25 92.15C99.2708 93.7333 101.693 96.0292 103.516 99.0375C105.339 102.046 106.25 105.344 106.25 108.933V126.667H6.25ZM118.75 126.667V107.667C118.75 103.022 117.474 98.5625 114.922 94.2875C112.37 90.0125 108.75 86.3445 104.062 83.2833C109.375 83.9167 114.375 84.9986 119.062 86.5292C123.75 88.0597 128.125 89.9333 132.188 92.15C135.938 94.2611 138.802 96.6097 140.781 99.1958C142.76 101.782 143.75 104.606 143.75 107.667V126.667H118.75ZM56.25 76C49.375 76 43.4896 73.5195 38.5938 68.5583C33.6979 63.5972 31.25 57.6333 31.25 50.6667C31.25 43.7 33.6979 37.7361 38.5938 32.775C43.4896 27.8139 49.375 25.3333 56.25 25.3333C63.125 25.3333 69.0104 27.8139 73.9062 32.775C78.8021 37.7361 81.25 43.7 81.25 50.6667C81.25 57.6333 78.8021 63.5972 73.9062 68.5583C69.0104 73.5195 63.125 76 56.25 76ZM118.75 50.6667C118.75 57.6333 116.302 63.5972 111.406 68.5583C106.51 73.5195 100.625 76 93.75 76C92.6042 76 91.1458 75.8681 89.375 75.6042C87.6042 75.3403 86.1458 75.05 85 74.7333C87.8125 71.3556 89.974 67.6083 91.4844 63.4917C92.9948 59.375 93.75 55.1 93.75 50.6667C93.75 46.2333 92.9948 41.9583 91.4844 37.8417C89.974 33.725 87.8125 29.9778 85 26.6C86.4583 26.0722 87.9167 25.7292 89.375 25.5708C90.8333 25.4125 92.2917 25.3333 93.75 25.3333C100.625 25.3333 106.51 27.8139 111.406 32.775C116.302 37.7361 118.75 43.7 118.75 50.6667ZM18.75 114H93.75V108.933C93.75 107.772 93.4635 106.717 92.8906 105.767C92.3177 104.817 91.5625 104.078 90.625 103.55C85 100.7 79.3229 98.5625 73.5938 97.1375C67.8646 95.7125 62.0833 95 56.25 95C50.4167 95 44.6354 95.7125 38.9062 97.1375C33.1771 98.5625 27.5 100.7 21.875 103.55C20.9375 104.078 20.1823 104.817 19.6094 105.767C19.0365 106.717 18.75 107.772 18.75 108.933V114ZM56.25 63.3333C59.6875 63.3333 62.6302 62.0931 65.0781 59.6125C67.526 57.132 68.75 54.15 68.75 50.6667C68.75 47.1833 67.526 44.2014 65.0781 41.7208C62.6302 39.2403 59.6875 38 56.25 38C52.8125 38 49.8698 39.2403 47.4219 41.7208C44.974 44.2014 43.75 47.1833 43.75 50.6667C43.75 54.15 44.974 57.132 47.4219 59.6125C49.8698 62.0931 52.8125 63.3333 56.25 63.3333Z" fill="#6C63FF"/>
</svg>
