<svg width="150" height="150" viewBox="0 0 150 150" fill="none" xmlns="http://www.w3.org/2000/svg">
<path d="M74.2188 125C74.6354 125 75.0521 124.896 75.4688 124.688C75.8854 124.479 76.1979 124.271 76.4062 124.062L127.656 72.8125C128.906 71.5625 129.818 70.1562 130.391 68.5938C130.964 67.0312 131.25 65.4688 131.25 63.9062C131.25 62.2396 130.964 60.651 130.391 59.1406C129.818 57.6302 128.906 56.3021 127.656 55.1562L101.094 28.5938C99.9479 27.3438 98.6198 26.4323 97.1094 25.8594C95.599 25.2865 94.0104 25 92.3438 25C90.7812 25 89.2188 25.2865 87.6562 25.8594C86.0938 26.4323 84.6875 27.3438 83.4375 28.5938L81.7188 30.3125L93.2812 42.0312C94.8438 43.4896 95.9896 45.1562 96.7188 47.0312C97.4479 48.9062 97.8125 50.8854 97.8125 52.9688C97.8125 57.3438 96.3281 61.0156 93.3594 63.9844C90.3906 66.9531 86.7188 68.4375 82.3438 68.4375C80.2604 68.4375 78.2552 68.0729 76.3281 67.3438C74.401 66.6146 72.7083 65.5208 71.25 64.0625L59.5312 52.5L32.1875 79.8438C31.875 80.1562 31.6406 80.4948 31.4844 80.8594C31.3281 81.224 31.25 81.6146 31.25 82.0312C31.25 82.8646 31.5625 83.6198 32.1875 84.2969C32.8125 84.974 33.5417 85.3125 34.375 85.3125C34.7917 85.3125 35.2083 85.2083 35.625 85C36.0417 84.7917 36.3542 84.5833 36.5625 84.375L57.8125 63.125L66.5625 71.875L45.4688 93.125C45.1562 93.4375 44.9219 93.776 44.7656 94.1406C44.6094 94.5052 44.5312 94.8958 44.5312 95.3125C44.5312 96.1458 44.8438 96.875 45.4688 97.5C46.0938 98.125 46.8229 98.4375 47.6562 98.4375C48.0729 98.4375 48.4896 98.3333 48.9062 98.125C49.3229 97.9167 49.6354 97.7083 49.8438 97.5L71.0938 76.4062L79.8438 85.1562L58.75 106.406C58.4375 106.615 58.2031 106.927 58.0469 107.344C57.8906 107.76 57.8125 108.177 57.8125 108.594C57.8125 109.427 58.125 110.156 58.75 110.781C59.375 111.406 60.1042 111.719 60.9375 111.719C61.3542 111.719 61.7448 111.641 62.1094 111.484C62.474 111.328 62.8125 111.094 63.125 110.781L84.375 89.6875L93.125 98.4375L71.875 119.688C71.5625 120 71.3281 120.339 71.1719 120.703C71.0156 121.068 70.9375 121.458 70.9375 121.875C70.9375 122.708 71.276 123.438 71.9531 124.062C72.6302 124.688 73.3854 125 74.2188 125ZM74.0625 137.5C70.2083 137.5 66.7969 136.224 63.8281 133.672C60.8594 131.12 59.1146 127.917 58.5938 124.062C55.0521 123.542 52.0833 122.083 49.6875 119.688C47.2917 117.292 45.8333 114.323 45.3125 110.781C41.7708 110.26 38.8281 108.776 36.4844 106.328C34.1406 103.88 32.7083 100.938 32.1875 97.5C28.2292 96.9792 25 95.2604 22.5 92.3438C20 89.4271 18.75 85.9896 18.75 82.0312C18.75 79.9479 19.1406 77.9427 19.9219 76.0156C20.7031 74.0885 21.8229 72.3958 23.2812 70.9375L59.5312 34.8438L80 55.3125C80.2083 55.625 80.5208 55.8594 80.9375 56.0156C81.3542 56.1719 81.7708 56.25 82.1875 56.25C83.125 56.25 83.9062 55.9635 84.5312 55.3906C85.1562 54.8177 85.4688 54.0625 85.4688 53.125C85.4688 52.7083 85.3906 52.2917 85.2344 51.875C85.0781 51.4583 84.8438 51.1458 84.5312 50.9375L62.1875 28.5938C61.0417 27.3438 59.7135 26.4323 58.2031 25.8594C56.6927 25.2865 55.1042 25 53.4375 25C51.875 25 50.3125 25.2865 48.75 25.8594C47.1875 26.4323 45.7812 27.3438 44.5312 28.5938L22.5 50.7812C21.5625 51.7188 20.7812 52.8125 20.1562 54.0625C19.5312 55.3125 19.1146 56.5625 18.9062 57.8125C18.6979 59.0625 18.6979 60.3385 18.9062 61.6406C19.1146 62.9427 19.5312 64.1667 20.1562 65.3125L11.0938 74.375C9.32292 71.9792 8.02083 69.349 7.1875 66.4844C6.35417 63.6198 6.04167 60.7292 6.25 57.8125C6.45833 54.8958 7.1875 52.0573 8.4375 49.2969C9.6875 46.5365 11.4062 44.0625 13.5938 41.875L35.625 19.8438C38.125 17.4479 40.9115 15.625 43.9844 14.375C47.0573 13.125 50.2083 12.5 53.4375 12.5C56.6667 12.5 59.8177 13.125 62.8906 14.375C65.9635 15.625 68.6979 17.4479 71.0938 19.8438L72.8125 21.5625L74.5312 19.8438C77.0312 17.4479 79.8177 15.625 82.8906 14.375C85.9635 13.125 89.1146 12.5 92.3438 12.5C95.5729 12.5 98.724 13.125 101.797 14.375C104.87 15.625 107.604 17.4479 110 19.8438L136.406 46.25C138.802 48.6458 140.625 51.4062 141.875 54.5312C143.125 57.6562 143.75 60.8333 143.75 64.0625C143.75 67.2917 143.125 70.4427 141.875 73.5156C140.625 76.5885 138.802 79.3229 136.406 81.7188L85.1562 132.812C83.6979 134.271 82.0052 135.417 80.0781 136.25C78.151 137.083 76.1458 137.5 74.0625 137.5Z" fill="#6C63FF"/>
</svg>
