<svg width="152" height="151" viewBox="0 0 152 151" fill="none" xmlns="http://www.w3.org/2000/svg">
<path d="M76 138.417C67.2389 138.417 59.0056 136.765 51.3 133.462C43.5944 130.159 36.8917 125.676 31.1917 120.014C25.4917 114.351 20.9792 107.692 17.6542 100.038C14.3292 92.3826 12.6667 84.2035 12.6667 75.5C12.6667 66.7965 14.3292 58.6174 17.6542 50.9625C20.9792 43.3076 25.4917 36.649 31.1917 30.9865C36.8917 25.324 43.5944 20.8412 51.3 17.538C59.0056 14.2349 67.2389 12.5833 76 12.5833C84.7611 12.5833 92.9944 14.2349 100.7 17.538C108.406 20.8412 115.108 25.324 120.808 30.9865C126.508 36.649 131.021 43.3076 134.346 50.9625C137.671 58.6174 139.333 66.7965 139.333 75.5C139.333 84.2035 137.671 92.3826 134.346 100.038C131.021 107.692 126.508 114.351 120.808 120.014C115.108 125.676 108.406 130.159 100.7 133.462C92.9944 136.765 84.7611 138.417 76 138.417ZM76 125.833C90.1444 125.833 102.125 120.957 111.942 111.205C121.758 101.453 126.667 89.5514 126.667 75.5C126.667 61.4486 121.758 49.5469 111.942 39.7948C102.125 30.0427 90.1444 25.1667 76 25.1667C61.8556 25.1667 49.875 30.0427 40.0583 39.7948C30.2417 49.5469 25.3333 61.4486 25.3333 75.5C25.3333 89.5514 30.2417 101.453 40.0583 111.205C49.875 120.957 61.8556 125.833 76 125.833ZM76 113.25C65.4444 113.25 56.4722 109.58 49.0833 102.24C41.6944 94.8993 38 85.9861 38 75.5C38 65.0139 41.6944 56.1007 49.0833 48.7604C56.4722 41.4201 65.4444 37.75 76 37.75C86.5555 37.75 95.5278 41.4201 102.917 48.7604C110.306 56.1007 114 65.0139 114 75.5C114 85.9861 110.306 94.8993 102.917 102.24C95.5278 109.58 86.5555 113.25 76 113.25ZM76 100.667C82.9667 100.667 88.9305 98.2024 93.8917 93.274C98.8528 88.3455 101.333 82.4208 101.333 75.5C101.333 68.5792 98.8528 62.6545 93.8917 57.7261C88.9305 52.7976 82.9667 50.3333 76 50.3333C69.0333 50.3333 63.0694 52.7976 58.1083 57.7261C53.1472 62.6545 50.6667 68.5792 50.6667 75.5C50.6667 82.4208 53.1472 88.3455 58.1083 93.274C63.0694 98.2024 69.0333 100.667 76 100.667ZM76 88.0833C72.5167 88.0833 69.5347 86.8512 67.0542 84.387C64.5736 81.9228 63.3333 78.9604 63.3333 75.5C63.3333 72.0396 64.5736 69.0773 67.0542 66.613C69.5347 64.1488 72.5167 62.9167 76 62.9167C79.4833 62.9167 82.4653 64.1488 84.9458 66.613C87.4264 69.0773 88.6667 72.0396 88.6667 75.5C88.6667 78.9604 87.4264 81.9228 84.9458 84.387C82.4653 86.8512 79.4833 88.0833 76 88.0833Z" fill="#6C63FF"/>
</svg>
