<svg width="616" height="495" viewBox="0 0 616 495" fill="none" xmlns="http://www.w3.org/2000/svg">
<g clip-path="url(#clip0_13_286)">
<path d="M153.716 380.944H595.831C598.363 380.944 600.87 380.463 603.209 379.528C605.549 378.593 607.674 377.222 609.464 375.494C611.255 373.765 612.675 371.714 613.644 369.456C614.613 367.198 615.111 364.777 615.111 362.333V115.545C615.115 113.896 614.887 112.253 614.436 110.663C613.326 106.72 610.904 103.239 607.541 100.758C604.179 98.2769 600.064 96.9331 595.831 96.9341H423.147C419.118 103.484 416.635 110.811 415.876 118.394C413.733 140.437 426.827 160.815 438.542 179.855C450.258 198.895 461.431 221.032 455.227 242.354C451.031 256.735 439.662 267.143 425.556 273.381C412.001 279.171 397.09 281.363 382.364 279.73C373.52 278.652 364.808 276.732 356.356 273.999C345.271 270.523 334.445 266.019 323.636 261.463C323.627 261.463 323.627 261.463 323.618 261.454C323.431 261.377 323.236 261.291 323.049 261.214C314.684 257.687 306.329 254.152 297.849 251.037C287.913 247.287 277.6 244.543 267.076 242.852C251.084 240.432 234.96 241.307 220.693 248.309C197.44 259.712 184.978 284.355 175.227 307.711C165.378 331.324 156.551 355.727 153.716 380.944Z" fill="#6C63FF"/>
<path d="M0.888916 286.535V362.334C0.888779 364.778 1.38737 367.198 2.35623 369.456C3.32509 371.714 4.74525 373.766 6.53559 375.494C8.32593 377.222 10.4514 378.593 12.7906 379.528C15.1298 380.463 17.637 380.945 20.1689 380.944H93.6622C94.9334 369.507 93.8667 358.112 89.2 347.481C79.0311 324.297 54.4267 310.585 30.969 299.577C21.1111 294.952 11.0845 290.49 0.888916 286.535Z" fill="#6C63FF"/>
<path d="M77.9084 363.44C77.9084 368.376 79.9397 373.11 83.5554 376.6C87.1711 380.091 92.0751 382.051 97.1884 382.051H170.682C171.953 370.614 170.886 359.219 166.22 348.588C163.829 343.137 158.244 337.099 150.967 331C122.418 307.071 77.9084 326.943 77.9084 363.44Z" fill="#6C63FF"/>
<path d="M0 362.333V115.545C0.00606044 110.383 2.13293 105.435 5.91401 101.785C9.69509 98.1351 14.8216 96.082 20.1688 96.0762H595.831C601.178 96.082 606.305 98.1351 610.086 101.785C613.867 105.435 615.994 110.383 616 115.545V362.333C615.994 367.495 613.867 372.444 610.086 376.094C606.305 379.743 601.178 381.797 595.831 381.802H20.1688C14.8215 381.797 9.69496 379.743 5.91387 376.094C2.13279 372.444 0.00596866 367.495 0 362.333ZM20.1688 97.7922C15.2929 97.7975 10.6182 99.6696 7.17041 102.998C3.7226 106.326 1.78322 110.838 1.77778 115.545V362.333C1.78313 367.04 3.72246 371.552 7.17027 374.881C10.6181 378.209 15.2928 380.081 20.1688 380.086H595.831C600.707 380.081 605.382 378.209 608.83 374.881C612.278 371.552 614.217 367.04 614.222 362.333V115.545C614.217 110.838 612.277 106.326 608.83 102.998C605.382 99.6696 600.707 97.7975 595.831 97.7922H20.1688Z" fill="#3F3D56"/>
<path d="M190.498 380.335H216.64C221.111 365.803 227.564 350.399 233.458 336.362C244.764 309.447 259.209 281.048 286.169 267.906C297.68 262.294 310.231 260.103 323.049 260.222C340.756 260.384 358.96 264.972 375.627 271.053C382.445 273.534 389.2 276.263 395.929 279.052C421.28 289.568 446.356 301.021 473.618 304.117C508.116 308.031 548.676 293.132 558.098 261.041C565.289 236.471 552.338 210.963 538.756 189.02C525.173 167.077 509.991 143.599 512.471 118.193C512.48 118.108 512.489 118.014 512.507 117.929C513.44 108.804 519.085 102.246 526.969 98.0413H492.64C492.187 121.741 506.391 142.661 519.173 163.316C532.756 185.251 545.707 210.767 538.516 235.337C529.093 267.42 451.073 229.812 416.575 225.889C406.833 224.789 422.308 228.703 413.02 225.889C398.451 221.48 396.836 261.919 382.658 255.983C373.831 252.282 364.996 248.607 356.044 245.34C352.338 243.984 348.551 242.714 344.72 241.537C344.711 241.537 344.711 241.537 344.702 241.528C318.978 233.665 290.844 230.604 267.076 241.972C266.916 242.048 266.747 242.125 266.587 242.202C239.627 255.335 225.182 283.734 213.876 310.649C204.533 332.899 195.102 356.866 190.498 380.335Z" fill="#3F3D56"/>
<path d="M190.782 203.449H20.7449C19.3516 203.449 18.0154 203.983 17.0302 204.934C16.045 205.885 15.4916 207.175 15.4916 208.52C15.4916 209.865 16.045 211.155 17.0302 212.106C18.0154 213.057 19.3516 213.591 20.7449 213.591H190.782C192.175 213.591 193.511 213.057 194.497 212.106C195.482 211.155 196.035 209.865 196.035 208.52C196.035 207.175 195.482 205.885 194.497 204.934C193.511 203.983 192.175 203.449 190.782 203.449Z" fill="#3F3D56"/>
<path d="M73.5835 175.016H20.8631C19.4698 175.016 18.1336 175.55 17.1484 176.501C16.1632 177.452 15.6097 178.742 15.6097 180.087C15.6097 181.432 16.1632 182.721 17.1484 183.672C18.1336 184.623 19.4698 185.158 20.8631 185.158H73.5835C74.9768 185.158 76.313 184.623 77.2982 183.672C78.2834 182.721 78.8368 181.432 78.8368 180.087C78.8368 178.742 78.2834 177.452 77.2982 176.501C76.313 175.55 74.9767 175.016 73.5835 175.016Z" fill="#3F3D56"/>
<path d="M276.887 471.856L266.11 471.768L261.34 430.71L277.244 430.84L276.887 471.856Z" fill="#FFB6B6"/>
<path d="M242.369 488.397C242.36 489.63 242.857 490.817 243.753 491.696C244.648 492.576 245.868 493.077 247.146 493.089L268.571 493.261L272.322 485.922L273.7 493.299L281.784 493.369L279.743 467.06L276.93 466.88L265.458 466.116L261.756 465.877L261.692 473.321L244.48 484.59C243.836 485.012 243.307 485.579 242.939 486.242C242.571 486.906 242.376 487.645 242.369 488.397Z" fill="#2F2E41"/>
<path d="M386.22 471.856L375.444 471.768L370.674 430.71L386.578 430.84L386.22 471.856Z" fill="#FFB6B6"/>
<path d="M351.703 488.397C351.693 489.63 352.191 490.817 353.086 491.696C353.981 492.576 355.202 493.077 356.479 493.089L377.905 493.261L381.655 485.922L383.033 493.299L391.117 493.369L389.076 467.06L386.263 466.88L374.791 466.116L371.09 465.877L371.025 473.321L353.814 484.59C353.169 485.012 352.64 485.579 352.272 486.242C351.905 486.906 351.709 487.645 351.703 488.397Z" fill="#2F2E41"/>
<path d="M263.593 143.052L312.093 107.022C314.143 105.49 315.487 103.241 315.834 100.761C316.182 98.2805 315.505 95.7677 313.95 93.7648C313.146 92.7287 312.131 91.8615 310.969 91.2162C309.806 90.5709 308.519 90.1609 307.186 90.0114C305.854 89.8618 304.504 89.9757 303.219 90.3462C301.934 90.7166 300.74 91.3359 299.711 92.1662L250.52 131.083L219.597 153.515C218.066 152.656 216.299 152.273 214.536 152.417C212.772 152.561 211.097 153.226 209.738 154.322C208.38 155.417 207.403 156.889 206.942 158.539C206.48 160.188 206.556 161.935 207.159 163.542C207.762 165.148 208.862 166.537 210.311 167.518C211.759 168.5 213.486 169.028 215.256 169.029C217.026 169.031 218.754 168.506 220.204 167.527C221.655 166.548 222.758 165.161 223.364 163.556L263.593 143.052Z" fill="#FFB6B6"/>
<path d="M303.123 151.335L300.985 197.424L373.595 205.905C367.881 187.385 358.512 161.663 362.805 148.774L303.123 151.335Z" fill="#A0616A"/>
<path d="M344.397 66.8416H322.03L312.425 82.7075L307.848 82.4636C298.928 85.7798 295.372 89.2119 290.45 98.3561L273.15 112.379L286.484 127.824C295.693 126.367 299.014 119.467 296.089 106.793C296.089 106.793 286.004 123.759 300.532 132.106C300.532 132.106 297.94 147.832 300.532 147.663C303.123 147.494 309.091 144.294 303.123 147.494C297.154 150.695 298.177 150.833 298.372 151.87C301.595 169.009 304.261 181.88 304.261 181.88L367.372 187.886C367.372 187.886 363.736 151.044 363.934 148.949C364.131 146.854 362.805 151.975 364.131 146.854C365.458 141.733 367.447 143.654 365.458 141.733C363.468 139.813 379.133 138.159 373.02 128.931L393.464 123.782L382.036 97.5648C382.036 88.7126 367.308 81.5364 358.137 81.5364H356.962L344.397 66.8416Z" fill="#E6E6E6"/>
<path d="M368.198 180.925C343.507 189.123 321.279 187.323 302.484 171.583C302.484 171.583 297.194 190.46 291.839 187.886C286.484 185.312 289.13 192.515 287.659 195.156C286.097 197.96 287.911 202.689 282.753 204.297C277.595 205.905 279.532 210.631 277.862 214.108C266.177 238.446 252.832 272.897 243.817 316.592C234.553 361.492 257.15 436.717 257.15 436.717L278.484 435.001L283.817 337.185L308.21 295.839C308.21 295.839 320.194 289.104 312.672 285.687C305.15 282.27 310.19 278.036 315.67 278.866C321.15 279.696 327.373 252.239 327.373 252.239C319.559 271.194 368.261 438.433 368.261 438.433L388.706 436.717L377.15 203.331L368.198 180.925Z" fill="#2F2E41"/>
<path d="M357.67 27.0096C360.095 32.8385 366.935 44.3012 367.862 50.5544L367.445 50.1586C366.649 51.4703 365.745 52.7179 364.742 53.8891C362.943 52.0656 360.77 50.6237 358.363 49.6552C359.677 52.2594 360.439 55.0913 360.602 57.984C356.149 61.727 344.777 59.4687 339.095 61.4635C329.951 64.6658 320.244 65.8058 310.659 66.7526C307.256 67.0906 303.448 67.2959 301.064 65.3553C298.68 63.4147 300.1 59.821 298.817 57.1029C289.68 37.7417 298.112 30.7563 305.276 21.9772C306.853 20.0453 306.846 17.1622 308.764 15.3189C311.426 12.7638 315.506 11.9779 319.268 11.3484C318.291 11.3981 317.317 11.2041 316.44 10.7852C315.563 10.3663 314.812 9.73646 314.26 8.95641C313.776 8.17051 313.526 7.27081 313.538 6.35657C313.55 5.44233 313.824 4.54906 314.328 3.77527C315.674 1.62232 318.469 0.370351 321.166 0.0575885C323.823 -0.116582 326.492 0.10489 329.08 0.714235C330.756 0.927019 332.379 1.42776 333.872 2.19277C334.576 2.5556 335.149 3.11738 335.514 3.803C335.879 4.48862 336.018 5.26541 335.914 6.02953C335.689 6.73515 335.302 7.3827 334.782 7.92387C334.262 8.46504 333.622 8.88587 332.91 9.15498C331.824 9.59812 330.682 9.89991 329.513 10.0524C334.879 9.38025 340.33 10.3012 345.141 12.6928C351.169 15.797 355.238 21.1838 357.67 27.0096Z" fill="#2F2E41"/>
<path d="M325.027 59.6886C336.928 59.6886 346.577 50.3751 346.577 38.8863C346.577 27.3975 336.928 18.084 325.027 18.084C313.125 18.084 303.476 27.3975 303.476 38.8863C303.476 50.3751 313.125 59.6886 325.027 59.6886Z" fill="#FFB6B6"/>
<path d="M345.763 27.7324C344.514 31.3777 340.943 32.5523 337.643 33.2849C336.602 33.5191 335.555 33.7372 334.498 33.9314C334.108 33.4609 333.694 32.9997 333.261 32.5639C331.462 30.7403 329.289 29.2984 326.882 28.33C327.923 30.387 328.615 32.5922 328.931 34.8612C326.936 35.1407 324.93 35.369 322.912 35.5463C321.206 35.897 319.425 35.6013 317.937 34.7204C316.45 33.8394 315.37 32.4406 314.921 30.813C313.084 33.7119 310.913 36.4419 307.943 37.5935C306.245 38.1825 304.396 38.2309 302.668 37.7317C300.939 37.2324 299.421 36.2118 298.337 34.8195C296.559 32.7251 295.569 29.9116 294.856 27.1961C294.013 23.968 293.545 20.2495 295.2 18.2013C296.525 16.5438 298.812 16.514 300.922 16.6611C305.578 17.0059 310.186 17.8122 314.671 19.0673L315.051 19.8914C314.28 15.4211 315.952 11.1201 319.046 9.59045C321.133 8.56774 323.643 8.73922 326.083 8.9467C329.216 9.08165 332.312 9.6596 335.272 10.6621C338.667 11.9227 341.575 14.1652 343.6 17.0828C345.765 20.2562 346.841 24.5843 345.763 27.7324Z" fill="#2F2E41"/>
<path d="M315.041 8.28946C315.254 8.22887 314.703 8.3067 314.894 8.31164C314.799 8.30633 314.705 8.29358 314.612 8.27353C314.596 8.27048 314.382 8.20438 314.524 8.25293C314.204 8.16055 313.919 7.98069 313.702 7.73508C313.196 7.13081 312.799 6.44853 312.528 5.71689C312.185 4.75005 311.635 3.86404 310.912 3.11703C310.707 2.91827 310.457 2.76898 310.181 2.68127C309.905 2.59356 309.611 2.5699 309.324 2.61222C309.037 2.65454 308.764 2.76165 308.528 2.92485C308.291 3.08804 308.098 3.30271 307.964 3.55146C307.544 4.44764 307.928 5.55185 308.227 6.43205C308.536 7.3466 308.996 8.20705 309.588 8.98024C310.582 10.2446 311.935 11.2028 313.482 11.7379C315.274 12.3659 317.227 12.4198 319.052 11.8915C319.294 11.795 319.501 11.6328 319.648 11.4247C319.795 11.2166 319.877 10.9717 319.882 10.7197C319.888 10.4677 319.818 10.2195 319.68 10.0054C319.542 9.79133 319.343 9.62056 319.106 9.51392L316.062 8.31092C315.901 8.24285 315.729 8.20591 315.554 8.20222C315.379 8.19854 315.205 8.2282 315.041 8.28946C314.878 8.35072 314.729 8.44238 314.603 8.55926C314.476 8.67614 314.375 8.81593 314.304 8.97064C314.234 9.12535 314.195 9.29195 314.192 9.46093C314.188 9.62992 314.218 9.79796 314.282 9.95549C314.345 10.113 314.44 10.2569 314.561 10.379C314.683 10.5011 314.827 10.599 314.988 10.6671L318.032 11.8701L318.086 9.49243C317.706 9.59829 317.315 9.6628 316.921 9.68479C316.499 9.72551 316.074 9.70821 315.658 9.6334C315.26 9.58297 314.868 9.49078 314.49 9.35846C314.248 9.27314 314.011 9.17602 313.779 9.06748C313.695 9.02801 313.611 8.98703 313.529 8.94455C313.535 8.94761 313.18 8.74849 313.336 8.84205C312.942 8.59914 312.572 8.32134 312.232 8.01222C312.112 7.90261 312.001 7.7837 311.901 7.65668C311.728 7.45098 311.567 7.23568 311.419 7.01188C311.12 6.53796 310.882 6.0298 310.712 5.49916C310.635 5.27615 310.569 5.04939 310.516 4.81982C310.502 4.6938 310.478 4.5689 310.446 4.44598C310.333 4.15312 310.467 4.617 310.337 4.74389L309.776 5.1431C309.671 5.17341 309.56 5.18044 309.451 5.16365C309.342 5.14687 309.239 5.10671 309.149 5.04615C309.082 4.95583 309.097 4.97081 309.192 5.09109C309.304 5.23265 309.405 5.38087 309.497 5.53487C309.698 5.8974 309.88 6.26957 310.042 6.64991C310.377 7.45883 310.801 8.2309 311.306 8.95299C311.8 9.68336 312.521 10.2443 313.365 10.556C314.21 10.8676 315.135 10.914 316.008 10.6886C316.336 10.5626 316.599 10.3174 316.741 10.0057C316.883 9.69401 316.892 9.34091 316.767 9.02257C316.633 8.70884 316.379 8.45728 316.057 8.32062C315.736 8.18396 315.371 8.1728 315.041 8.28946Z" fill="#2F2E41"/>
<path d="M281.43 234.301C316.622 234.301 345.15 206.763 345.15 172.793C345.15 138.823 316.622 111.284 281.43 111.284C246.239 111.284 217.71 138.823 217.71 172.793C217.71 206.763 246.239 234.301 281.43 234.301Z" fill="white"/>
<path d="M281.43 235.159C268.652 235.159 256.16 231.502 245.536 224.649C234.911 217.796 226.63 208.056 221.739 196.66C216.849 185.264 215.57 172.724 218.063 160.626C220.556 148.528 226.709 137.416 235.745 128.693C244.78 119.971 256.293 114.031 268.825 111.625C281.358 109.218 294.349 110.453 306.155 115.174C317.96 119.894 328.051 127.888 335.15 138.144C342.25 148.4 346.039 160.458 346.039 172.793C346.02 189.328 339.207 205.18 327.094 216.872C314.982 228.564 298.56 235.141 281.43 235.159ZM281.43 112.143C269.003 112.143 256.856 115.7 246.523 122.364C236.191 129.028 228.137 138.501 223.382 149.583C218.626 160.666 217.382 172.86 219.806 184.625C222.231 196.39 228.215 207.197 237.002 215.679C245.789 224.162 256.985 229.938 269.173 232.278C281.361 234.618 293.994 233.417 305.475 228.827C316.956 224.236 326.769 216.462 333.673 206.488C340.577 196.514 344.262 184.788 344.261 172.793C344.243 156.713 337.617 141.297 325.838 129.927C314.059 118.556 298.088 112.161 281.43 112.143Z" fill="#3F3D56"/>
<path d="M272.737 204.805C271.637 204.805 270.552 204.558 269.568 204.082C268.584 203.607 267.728 202.917 267.068 202.068L249.684 179.693C249.125 178.975 248.719 178.157 248.488 177.286C248.257 176.416 248.206 175.51 248.338 174.621C248.469 173.731 248.781 172.875 249.256 172.102C249.73 171.329 250.357 170.654 251.102 170.115C251.846 169.576 252.694 169.184 253.595 168.961C254.497 168.738 255.435 168.688 256.357 168.815C257.278 168.942 258.165 169.244 258.966 169.701C259.767 170.159 260.466 170.765 261.025 171.483L272.398 186.12L301.608 143.826C302.124 143.078 302.788 142.436 303.562 141.936C304.335 141.436 305.203 141.088 306.116 140.912C307.028 140.736 307.968 140.735 308.881 140.909C309.794 141.084 310.663 141.43 311.437 141.928C312.212 142.427 312.877 143.068 313.395 143.814C313.913 144.561 314.274 145.398 314.456 146.28C314.639 147.161 314.64 148.068 314.459 148.949C314.278 149.831 313.92 150.669 313.403 151.417L278.636 201.758C278.007 202.668 277.161 203.42 276.169 203.95C275.177 204.48 274.068 204.772 272.935 204.803C272.869 204.804 272.803 204.805 272.737 204.805Z" fill="#6C63FF"/>
<path d="M211.243 493.979C211.242 494.113 211.269 494.246 211.322 494.37C211.375 494.494 211.453 494.607 211.551 494.702C211.65 494.797 211.767 494.872 211.895 494.923C212.024 494.974 212.161 495.001 212.3 495H437.447C437.728 495 437.997 494.893 438.195 494.701C438.393 494.51 438.505 494.25 438.505 493.979C438.505 493.708 438.393 493.449 438.195 493.257C437.997 493.066 437.728 492.958 437.447 492.958H212.3C212.161 492.958 212.024 492.984 211.895 493.035C211.767 493.086 211.65 493.161 211.551 493.256C211.453 493.351 211.375 493.464 211.322 493.588C211.269 493.712 211.242 493.845 211.243 493.979Z" fill="#CCCCCC"/>
<path d="M410.588 174.896L389.758 119.347C388.868 116.997 387.057 115.078 384.714 114.005C382.372 112.932 379.686 112.791 377.237 113.612C375.97 114.037 374.806 114.707 373.816 115.58C372.826 116.454 372.03 117.513 371.478 118.693C370.925 119.873 370.628 121.149 370.603 122.443C370.578 123.738 370.827 125.024 371.334 126.223L394.803 183.284L407.55 218.537C406.237 219.684 405.322 221.192 404.929 222.858C404.536 224.524 404.683 226.267 405.352 227.849C406.02 229.431 407.177 230.776 408.665 231.702C410.153 232.627 411.9 233.088 413.668 233.022C415.437 232.955 417.142 232.365 418.551 231.331C419.96 230.297 421.005 228.869 421.544 227.242C422.084 225.614 422.091 223.866 421.565 222.234C421.039 220.603 420.005 219.167 418.605 218.123L410.588 174.896Z" fill="#FFB6B6"/>
<path d="M379.242 94.6091L396.131 123.782C396.131 123.782 357.209 136.646 357.114 134.504C357.02 132.363 359.048 102.642 359.048 102.642L379.242 94.6091Z" fill="#E6E6E6"/>
</g>
<defs>
<clipPath id="clip0_13_286">
<rect width="616" height="495" fill="white"/>
</clipPath>
</defs>
</svg>
